<svg viewBox="0 0 800 600" xmlns="http://www.w3.org/2000/svg" role="img" aria-labelledby="afterTitle">
  <title id="afterTitle">Placeholder: kitchen after renovation</title>
  <rect width="800" height="600" fill="#f5f7fa"/>
  <rect x="0" y="0" width="800" height="380" fill="#eaf1fb"/>
  <rect x="0" y="380" width="800" height="220" fill="#e3ecf7"/>
  <rect x="90" y="300" width="180" height="180" rx="10" fill="#ffffff" stroke="#2b5c9e" stroke-width="4"/>
  <rect x="110" y="320" width="140" height="60" rx="6" fill="#dce8f9"/>
  <rect x="540" y="280" width="200" height="200" rx="10" fill="#ffffff" stroke="#4e9e2e" stroke-width="4"/>
  <circle cx="640" cy="380" r="55" fill="#eef8e9"/>
  <path d="M640 340 v80 M600 380 h80" stroke="#4e9e2e" stroke-width="5" stroke-linecap="round"/>
  <rect x="320" y="440" width="160" height="16" rx="8" fill="#2b5c9e"/>
  <rect x="340" y="470" width="120" height="10" rx="5" fill="#4e9e2e"/>
  <g>
    <rect x="60" y="90" width="60" height="90" rx="6" fill="#4e9e2e" opacity="0.85"/>
    <path d="M90 70 q-24 20 0 40 q24 -20 0 -40" fill="#4e9e2e"/>
  </g>
  <rect x="0" y="560" width="800" height="40" fill="#dce8f9"/>
  <text x="400" y="590" text-anchor="middle" font-family="sans-serif" font-size="14" fill="#2b5c9e" opacity="0.7">Placeholder photo — replace with real after image</text>
</svg>
