<svg xmlns="http://www.w3.org/2000/svg" viewBox="-0.55 5.00 112.63 112.63">
<ellipse cx="55.76" cy="87.34" rx="41.01" ry="13.53" fill="#0B1220" opacity="0.1"/>
<polygon points="64.37,12.77 103.12,35.14 47.15,67.46 8.40,45.09" fill="#F7F9FB" stroke="#252A31" stroke-width="2.4" stroke-linejoin="round"/>
<polygon points="103.12,74.91 47.15,107.23 47.15,67.46 103.12,35.14" fill="#F7F9FB" stroke="#252A31" stroke-width="2.4" stroke-linejoin="round"/>
<polygon points="8.40,84.86 47.15,107.23 47.15,67.46 8.40,45.09" fill="#CBD3DC" stroke="#252A31" stroke-width="2.4" stroke-linejoin="round"/>
<path d="M 85.65 74.91 L 85.65 82.37 A 4.57 2.63 0 0 0 94.77 82.37 L 94.77 74.91 A 4.57 2.63 0 0 1 85.65 74.91 Z" fill="#AEB6BF" stroke="#252A31" stroke-width="1.5" stroke-linejoin="round"/>
<ellipse cx="90.20" cy="74.91" rx="4.57" ry="2.64" fill="#C3CAD2" stroke="#252A31" stroke-width="1.5"/>
<path d="M 42.57 99.77 L 42.57 107.23 A 4.57 2.63 0 0 0 51.72 107.23 L 51.72 99.77 A 4.57 2.63 0 0 1 42.57 99.77 Z" fill="#AEB6BF" stroke="#252A31" stroke-width="1.5" stroke-linejoin="round"/>
<ellipse cx="47.15" cy="99.77" rx="4.57" ry="2.64" fill="#C3CAD2" stroke="#252A31" stroke-width="1.5"/>
<path d="M 16.74 84.86 L 16.74 92.31 A 4.57 2.63 0 0 0 25.89 92.31 L 25.89 84.86 A 4.57 2.63 0 0 1 16.74 84.86 Z" fill="#AEB6BF" stroke="#252A31" stroke-width="1.5" stroke-linejoin="round"/>
<ellipse cx="21.32" cy="84.86" rx="4.57" ry="2.64" fill="#C3CAD2" stroke="#252A31" stroke-width="1.5"/>
<ellipse cx="90.63" cy="62.73" rx="9.74" ry="5.62" fill="#C3CAD2" stroke="#252A31" stroke-width="1.5" transform="rotate(120 90.63 62.73)"/>
<ellipse cx="90.96" cy="62.92" rx="5.18" ry="2.99" fill="#6E7884" stroke="#252A31" stroke-width="1.5" transform="rotate(120 90.96 62.92)"/>
<ellipse cx="75.56" cy="71.43" rx="9.74" ry="5.62" fill="#C3CAD2" stroke="#252A31" stroke-width="1.5" transform="rotate(120 75.56 71.43)"/>
<ellipse cx="75.89" cy="71.62" rx="5.18" ry="2.99" fill="#6E7884" stroke="#252A31" stroke-width="1.5" transform="rotate(120 75.89 71.62)"/>
<ellipse cx="60.50" cy="80.13" rx="9.74" ry="5.62" fill="#C3CAD2" stroke="#252A31" stroke-width="1.5" transform="rotate(120 60.50 80.13)"/>
<ellipse cx="60.82" cy="80.32" rx="5.18" ry="2.99" fill="#6E7884" stroke="#252A31" stroke-width="1.5" transform="rotate(120 60.82 80.32)"/>
<polygon points="99.03,45.21 51.67,72.55 51.67,65.10 99.03,37.75" fill="#6E7884" stroke="#252A31" stroke-width="1.5" stroke-linejoin="round"/>
<polygon points="55.76,18.74 64.37,23.71 38.54,38.62 29.93,33.65" fill="#6E7884" stroke="#252A31" stroke-width="1.5" stroke-linejoin="round"/>
<polygon points="64.37,30.17 38.54,45.09 38.54,38.62 64.37,23.71" fill="#6E7884" stroke="#252A31" stroke-width="1.5" stroke-linejoin="round"/>
<polygon points="29.93,40.11 38.54,45.09 38.54,38.62 29.93,33.65" fill="#6E7884" stroke="#252A31" stroke-width="1.5" stroke-linejoin="round"/>
</svg>
