<svg xmlns="http://www.w3.org/2000/svg" viewBox="-70.12 -57.08 116.28 116.28">
<polygon points="0.00,-48.94 3.69,-46.81 -38.69,-22.34 -42.38,-24.47" fill="#CBD3DC" stroke="#252A31" stroke-width="2.4" stroke-linejoin="round"/>
<polygon points="3.69,2.13 -38.69,26.60 -38.69,-22.34 3.69,-46.81" fill="#CBD3DC" stroke="#252A31" stroke-width="2.4" stroke-linejoin="round"/>
<polygon points="-42.38,24.47 -38.69,26.60 -38.69,-22.34 -42.38,-24.47" fill="#A9B4C0" stroke="#252A31" stroke-width="2.4" stroke-linejoin="round"/>
<polygon points="0.92,-42.02 12.90,-35.11 -12.90,-20.21 -24.88,-27.13" fill="#F7F9FB" stroke="#252A31" stroke-width="2.4" stroke-linejoin="round"/>
<polygon points="12.90,-21.28 -12.90,-6.38 -12.90,-20.21 12.90,-35.11" fill="#F7F9FB" stroke="#252A31" stroke-width="2.4" stroke-linejoin="round"/>
<polygon points="-24.88,-13.30 -12.90,-6.38 -12.90,-20.21 -24.88,-27.13" fill="#CBD3DC" stroke="#252A31" stroke-width="2.4" stroke-linejoin="round"/>
<polygon points="11.24,-21.17 -8.11,-10.00 -8.11,-15.32 11.24,-26.49" fill="#6E7884" stroke="#252A31" stroke-width="1.5" stroke-linejoin="round"/>
<line x1="10.00" y1="-21.36" x2="6.86" y2="-19.55" stroke="#C3CAD2" stroke-width="1.5" stroke-linecap="round"/>
<line x1="5.39" y1="-18.70" x2="2.26" y2="-16.89" stroke="#C3CAD2" stroke-width="1.5" stroke-linecap="round"/>
<line x1="0.78" y1="-16.04" x2="-2.35" y2="-14.23" stroke="#C3CAD2" stroke-width="1.5" stroke-linecap="round"/>
<line x1="-3.82" y1="-13.38" x2="-6.96" y2="-11.57" stroke="#C3CAD2" stroke-width="1.5" stroke-linecap="round"/>
<polygon points="-0.74,-21.70 -7.19,-17.98 -7.19,-21.17 -0.74,-24.89" fill="#9CC6E8" stroke="#252A31" stroke-width="1.5" stroke-linejoin="round"/>
<path d="M -16.02 -15.96 L -16.02 7.45 A 3.13 1.81 0 0 0 -9.78 7.45 L -9.78 -15.96 A 3.13 1.81 0 0 1 -16.02 -15.96 Z" fill="#AEB6BF" stroke="#252A31" stroke-width="1.5" stroke-linejoin="round"/>
<ellipse cx="-12.90" cy="-15.96" rx="3.13" ry="1.81" fill="#C3CAD2" stroke="#252A31" stroke-width="1.5"/>
<polygon points="-14.46,9.09 -5.25,14.41 -2.12,8.99 -11.33,3.68" fill="#AEB6BF" stroke="#252A31" stroke-width="1.5" stroke-linejoin="round"/>
<ellipse cx="-3.69" cy="11.70" rx="3.13" ry="1.81" fill="#C3CAD2" stroke="#252A31" stroke-width="1.5" transform="rotate(120 -3.69 11.70)"/>
<polygon points="-9.21,17.02 18.43,32.98 -7.37,47.87 -35.01,31.91" fill="#AEB6BF" stroke="#252A31" stroke-width="1.5" stroke-linejoin="round"/>
<polygon points="18.43,36.17 -7.37,51.06 -7.37,47.87 18.43,32.98" fill="#AEB6BF" stroke="#252A31" stroke-width="1.5" stroke-linejoin="round"/>
<polygon points="-35.01,35.11 -7.37,51.06 -7.37,47.87 -35.01,31.91" fill="#AEB6BF" stroke="#252A31" stroke-width="1.5" stroke-linejoin="round"/>
<polygon points="-8.29,-5.85 13.82,6.91 -8.29,19.68 -30.40,6.91" fill="#F7F9FB" stroke="#252A31" stroke-width="2.4" stroke-linejoin="round"/>
<polygon points="13.82,32.45 -8.29,45.21 -8.29,19.68 13.82,6.91" fill="#F7F9FB" stroke="#252A31" stroke-width="2.4" stroke-linejoin="round"/>
<polygon points="-30.40,32.45 -8.29,45.21 -8.29,19.68 -30.40,6.91" fill="#CBD3DC" stroke="#252A31" stroke-width="2.4" stroke-linejoin="round"/>
<ellipse cx="2.76" cy="26.06" rx="11.20" ry="6.47" fill="#6E7884" stroke="#252A31" stroke-width="2.4" transform="rotate(120 2.76 26.06)"/>
<ellipse cx="2.76" cy="26.06" rx="2.87" ry="1.65" fill="#C3CAD2" stroke="#252A31" stroke-width="1.5" transform="rotate(120 2.76 26.06)"/>
<line x1="2.76" y1="26.06" x2="-2.39" y2="25.74" stroke="#C3CAD2" stroke-width="1.5" stroke-linecap="round"/>
<line x1="2.76" y1="26.06" x2="8.47" y2="19.47" stroke="#C3CAD2" stroke-width="1.5" stroke-linecap="round"/>
<line x1="2.76" y1="26.06" x2="3.04" y2="33.46" stroke="#C3CAD2" stroke-width="1.5" stroke-linecap="round"/>
<line x1="-28.61" y1="30.35" x2="-10.18" y2="40.98" stroke="#6E7884" stroke-width="1.5" stroke-linecap="round"/>
<line x1="-28.61" y1="25.88" x2="-10.18" y2="36.52" stroke="#6E7884" stroke-width="1.5" stroke-linecap="round"/>
<line x1="-28.61" y1="21.41" x2="-10.18" y2="32.05" stroke="#6E7884" stroke-width="1.5" stroke-linecap="round"/>
<line x1="-28.61" y1="16.94" x2="-10.18" y2="27.58" stroke="#6E7884" stroke-width="1.5" stroke-linecap="round"/>
<line x1="-28.61" y1="12.47" x2="-10.18" y2="23.11" stroke="#6E7884" stroke-width="1.5" stroke-linecap="round"/>
<polygon points="-8.29,-3.94 10.13,6.70 -8.29,17.34 -26.72,6.70" fill="#AEB6BF" stroke="#252A31" stroke-width="1.5" stroke-linejoin="round"/>
</svg>