<svg xmlns="http://www.w3.org/2000/svg" viewBox="-83.91 -58.76 116.00 116.00">
<polygon points="0.00,-49.54 4.29,-47.06 -71.62,-3.24 -75.91,-5.72" fill="#CBD3DC" stroke="#252A31" stroke-width="2.4" stroke-linejoin="round"/>
<polygon points="4.29,2.48 -71.62,46.30 -71.62,-3.24 4.29,-47.06" fill="#CBD3DC" stroke="#252A31" stroke-width="2.4" stroke-linejoin="round"/>
<polygon points="-75.91,43.83 -71.62,46.30 -71.62,-3.24 -75.91,-5.72" fill="#A9B4C0" stroke="#252A31" stroke-width="2.4" stroke-linejoin="round"/>
<polygon points="4.29,-35.63 7.26,-33.92 -68.65,9.91 -71.62,8.19" fill="#AEB6BF" stroke="#252A31" stroke-width="1.5" stroke-linejoin="round"/>
<polygon points="7.26,4.19 -68.65,48.02 -68.65,9.91 7.26,-33.92" fill="#F7F9FB" stroke="#252A31" stroke-width="1.5" stroke-linejoin="round"/>
<polygon points="-71.62,46.30 -68.65,48.02 -68.65,9.91 -71.62,8.19" fill="#A9B4C0" stroke="#252A31" stroke-width="1.5" stroke-linejoin="round"/>
<line x1="5.78" y1="-1.24" x2="-66.83" y2="40.68" stroke="#AEB6BF" stroke-width="1.5" stroke-linecap="round"/>
<line x1="5.78" y1="-8.10" x2="-66.83" y2="33.82" stroke="#AEB6BF" stroke-width="1.5" stroke-linecap="round"/>
<line x1="5.78" y1="-14.96" x2="-66.83" y2="26.96" stroke="#AEB6BF" stroke-width="1.5" stroke-linecap="round"/>
<line x1="5.78" y1="-21.82" x2="-66.83" y2="20.10" stroke="#AEB6BF" stroke-width="1.5" stroke-linecap="round"/>
<line x1="5.78" y1="-28.68" x2="-66.83" y2="13.24" stroke="#AEB6BF" stroke-width="1.5" stroke-linecap="round"/>
<line x1="2.48" y1="6.19" x2="2.48" y2="-30.01" stroke="#AEB6BF" stroke-width="1.5" stroke-linecap="round"/>
<line x1="-7.76" y1="12.10" x2="-7.76" y2="-24.10" stroke="#AEB6BF" stroke-width="1.5" stroke-linecap="round"/>
<line x1="-17.99" y1="18.01" x2="-17.99" y2="-18.20" stroke="#AEB6BF" stroke-width="1.5" stroke-linecap="round"/>
<line x1="-28.22" y1="23.91" x2="-28.22" y2="-12.29" stroke="#AEB6BF" stroke-width="1.5" stroke-linecap="round"/>
<line x1="-38.45" y1="29.82" x2="-38.45" y2="-6.38" stroke="#AEB6BF" stroke-width="1.5" stroke-linecap="round"/>
<line x1="-48.68" y1="35.73" x2="-48.68" y2="-0.48" stroke="#AEB6BF" stroke-width="1.5" stroke-linecap="round"/>
<line x1="-58.91" y1="41.63" x2="-58.91" y2="5.43" stroke="#AEB6BF" stroke-width="1.5" stroke-linecap="round"/>
<polygon points="4.29,-40.59 24.09,-29.15 -51.82,14.67 -71.62,3.24" fill="#EEF1F5" stroke="#252A31" stroke-width="2.4" stroke-linejoin="round"/>
<polygon points="24.09,-24.20 -51.82,19.63 -51.82,14.67 24.09,-29.15" fill="#C3CAD2" stroke="#252A31" stroke-width="2.4" stroke-linejoin="round"/>
<polygon points="-71.62,8.19 -51.82,19.63 -51.82,14.67 -71.62,3.24" fill="#AEB6BF" stroke="#252A31" stroke-width="2.4" stroke-linejoin="round"/>
</svg>