<svg xmlns="http://www.w3.org/2000/svg" viewBox="-22.96 -39.55 55.80 55.80"><polygon points="0.00,-1.20 13.86,6.80 9.87,9.10 -3.98,1.10" fill="#C79A68" stroke="#252A31" stroke-width="1.9" stroke-linejoin="round"/><polygon points="13.86,8.00 9.87,10.30 9.87,9.10 13.86,6.80" fill="#A87C4E" stroke="#252A31" stroke-width="1.9" stroke-linejoin="round"/><polygon points="-3.98,2.30 9.87,10.30 9.87,9.10 -3.98,1.10" fill="#A87C4E" stroke="#252A31" stroke-width="1.9" stroke-linejoin="round"/><polygon points="-3.64,-32.10 0.00,-30.00 -3.98,-27.70 -7.62,-29.80" fill="#EEF1F5" stroke="#252A31" stroke-width="1.9" stroke-linejoin="round"/><polygon points="0.00,0.00 -3.98,2.30 -3.98,-27.70 0.00,-30.00" fill="#C4CCD5" stroke="#252A31" stroke-width="1.9" stroke-linejoin="round"/><polygon points="-7.62,0.20 -3.98,2.30 -3.98,-27.70 -7.62,-29.80" fill="#A2AEBA" stroke="#252A31" stroke-width="1.9" stroke-linejoin="round"/><polygon points="13.86,-22.00 17.49,-19.90 13.51,-17.60 9.87,-19.70" fill="#EEF1F5" stroke="#252A31" stroke-width="1.9" stroke-linejoin="round"/><polygon points="17.49,10.10 13.51,12.40 13.51,-17.60 17.49,-19.90" fill="#C4CCD5" stroke="#252A31" stroke-width="1.9" stroke-linejoin="round"/><polygon points="9.87,10.30 13.51,12.40 13.51,-17.60 9.87,-19.70" fill="#A2AEBA" stroke="#252A31" stroke-width="1.9" stroke-linejoin="round"/><polygon points="-3.64,-35.70 17.49,-23.50 13.51,-21.20 -7.62,-33.40" fill="#EEF1F5" stroke="#252A31" stroke-width="1.9" stroke-linejoin="round"/><polygon points="17.49,-19.90 13.51,-17.60 13.51,-21.20 17.49,-23.50" fill="#C4CCD5" stroke="#252A31" stroke-width="1.9" stroke-linejoin="round"/><polygon points="-7.62,-29.80 13.51,-17.60 13.51,-21.20 -7.62,-33.40" fill="#A2AEBA" stroke="#252A31" stroke-width="1.9" stroke-linejoin="round"/><polygon points="-1.37,-28.08 7.51,-30.47 6.27,-32.01 -2.61,-29.62" fill="#EEF1F5" stroke="#252A31" stroke-width="1.8" stroke-linejoin="round"/><polygon points="-1.37,0.92 7.51,-1.47 7.51,-30.47 -1.37,-28.08" fill="#EEF1F5" stroke="#252A31" stroke-width="1.8" stroke-linejoin="round"/><polygon points="7.51,-1.47 6.27,-3.01 6.27,-32.01 7.51,-30.47" fill="#CBD3DC" stroke="#252A31" stroke-width="1.8" stroke-linejoin="round"/><polygon points="-0.38,-26.75 8.02,-23.84 9.53,-25.30 1.13,-28.21" fill="#EEF1F5" stroke="#252A31" stroke-width="1.8" stroke-linejoin="round"/><polygon points="-0.38,2.25 8.02,5.16 8.02,-23.84 -0.38,-26.75" fill="#EEF1F5" stroke="#252A31" stroke-width="1.8" stroke-linejoin="round"/><polygon points="8.02,5.16 9.53,3.70 9.53,-25.30 8.02,-23.84" fill="#CBD3DC" stroke="#252A31" stroke-width="1.8" stroke-linejoin="round"/><circle cx="6.51" cy="-8.37" r="1.6" fill="#6E7884"/><path d="M 9.55 -0.55 L 9.64 -0.23 L 9.71 0.08 L 9.75 0.39 L 9.77 0.71 L 9.76 1.03 L 9.72 1.34 L 9.66 1.66 L 9.57 1.97 L 9.46 2.28 L 9.33 2.58 L 9.17 2.89 L 8.98 3.18 L 8.78 3.47 L 8.55 3.76 L 8.29 4.04 L 8.02 4.31 L 7.72 4.58 L 7.40 4.84" fill="none" stroke="#D14836" stroke-width="1.9" stroke-linecap="round"/><path d="M 7.40 4.84 L 7.68 3.23 L 9.82 3.79 Z" fill="#D14836"/></svg>