<svg xmlns="http://www.w3.org/2000/svg" viewBox="7.20 0.14 119.71 119.71">
<ellipse cx="67.05" cy="90.16" rx="32.17" ry="10.62" fill="#0B1220" opacity="0.1"/>
<polygon points="104.19,87.58 62.59,111.60 62.59,66.99 104.19,42.98" fill="#CBD3DC" stroke="#252A31" stroke-width="2.4" stroke-linejoin="round"/>
<polygon points="29.91,92.73 62.59,111.60 62.59,66.99 29.91,48.12" fill="#A9B4C0" stroke="#252A31" stroke-width="2.4" stroke-linejoin="round"/>
<polygon points="101.82,86.21 60.22,110.23 60.22,105.08 101.82,81.06" fill="#6E7884" stroke="#252A31" stroke-width="1.5" stroke-linejoin="round"/>
<polygon points="101.45,81.71 65.79,102.29 65.79,68.84 101.45,48.25" fill="#F7F9FB" stroke="#252A31" stroke-width="1.5" stroke-linejoin="round"/>
<line x1="72.99" y1="86.72" x2="72.99" y2="76.43" stroke="#6E7884" stroke-width="2.4" stroke-linecap="round"/>
<polygon points="71.51,8.67 107.17,29.25 62.59,54.99 26.94,34.40" fill="#C3CAD2" stroke="#252A31" stroke-width="2.4" stroke-linejoin="round"/>
<polygon points="107.17,42.98 62.59,68.71 62.59,54.99 107.17,29.25" fill="#C3CAD2" stroke="#252A31" stroke-width="2.4" stroke-linejoin="round"/>
<polygon points="26.94,48.12 62.59,68.71 62.59,54.99 26.94,34.40" fill="#AEB6BF" stroke="#252A31" stroke-width="2.4" stroke-linejoin="round"/>
<polygon points="71.51,12.61 101.22,29.77 62.59,52.07 32.88,34.91" fill="#C3CAD2" stroke="#252A31" stroke-width="1.5" stroke-linejoin="round"/>
<polygon points="70.76,21.10 94.54,34.83 63.34,52.84 39.56,39.12" fill="#7DAFD9" stroke="#252A31" stroke-width="1.5" stroke-linejoin="round"/>
<path d="M 51.80 10.04 L 51.80 23.76 A 1.89 1.10 0 0 0 55.57 23.76 L 55.57 10.04 A 1.89 1.10 0 0 1 51.80 10.04 Z" fill="#C3CAD2" stroke="#252A31" stroke-width="1.5" stroke-linejoin="round"/>
<ellipse cx="53.68" cy="10.04" rx="1.89" ry="1.09" fill="#C3CAD2" stroke="#252A31" stroke-width="1.5"/>
<polygon points="52.73,11.68 59.57,15.62 61.46,12.35 54.62,8.40" fill="#C3CAD2" stroke="#252A31" stroke-width="1.5" stroke-linejoin="round"/>
<ellipse cx="60.51" cy="13.98" rx="1.89" ry="1.09" fill="#AEB6BF" stroke="#252A31" stroke-width="1.5" transform="rotate(120 60.51 13.98)"/>
</svg>