<svg xmlns="http://www.w3.org/2000/svg" viewBox="-92.64 -54.51 116.00 116.00">
<polygon points="0.81,-10.14 15.31,-1.77 -70.09,47.53 -84.59,39.16" fill="#C79A68" stroke="#252A31" stroke-width="2.4" stroke-linejoin="round"/>
<polygon points="15.31,4.19 -70.09,53.49 -70.09,47.53 15.31,-1.77" fill="#C79A68" stroke="#252A31" stroke-width="2.4" stroke-linejoin="round"/>
<polygon points="-84.59,45.12 -70.09,53.49 -70.09,47.53 -84.59,39.16" fill="#A87C4E" stroke="#252A31" stroke-width="2.4" stroke-linejoin="round"/>
<polygon points="0.00,-37.21 8.06,-32.56 0.00,-27.91 -8.06,-32.56" fill="#EEF1F5" stroke="#252A31" stroke-width="2.4" stroke-linejoin="round"/>
<polygon points="8.06,-2.79 0.00,1.86 0.00,-27.91 8.06,-32.56" fill="#CBD3DC" stroke="#252A31" stroke-width="2.4" stroke-linejoin="round"/>
<polygon points="-8.06,-2.79 0.00,1.86 0.00,-27.91 -8.06,-32.56" fill="#A9B4C0" stroke="#252A31" stroke-width="2.4" stroke-linejoin="round"/>
<polygon points="-69.28,2.79 -61.23,7.44 -69.28,12.09 -77.34,7.44" fill="#EEF1F5" stroke="#252A31" stroke-width="2.4" stroke-linejoin="round"/>
<polygon points="-61.23,37.21 -69.28,41.86 -69.28,12.09 -61.23,7.44" fill="#CBD3DC" stroke="#252A31" stroke-width="2.4" stroke-linejoin="round"/>
<polygon points="-77.34,37.21 -69.28,41.86 -69.28,12.09 -77.34,7.44" fill="#A9B4C0" stroke="#252A31" stroke-width="2.4" stroke-linejoin="round"/>
<polygon points="0.00,-46.51 8.06,-41.86 -69.28,2.79 -77.34,-1.86" fill="#EEF1F5" stroke="#252A31" stroke-width="2.4" stroke-linejoin="round"/>
<polygon points="8.06,-32.56 -69.28,12.09 -69.28,2.79 8.06,-41.86" fill="#CBD3DC" stroke="#252A31" stroke-width="2.4" stroke-linejoin="round"/>
<polygon points="-77.34,7.44 -69.28,12.09 -69.28,2.79 -77.34,-1.86" fill="#A9B4C0" stroke="#252A31" stroke-width="2.4" stroke-linejoin="round"/>
<polygon points="-3.87,-0.37 -65.09,34.98 -65.09,5.21 -3.87,-30.14" fill="#9CC6E8" stroke="#252A31" stroke-width="1.5" stroke-linejoin="round"/>
<polygon points="-24.23,-20.61 -20.37,-18.38 -23.91,-16.33 -27.78,-18.57" fill="#EEF1F5" stroke="#252A31" stroke-width="1.5" stroke-linejoin="round"/>
<polygon points="-20.37,11.39 -23.91,13.43 -23.91,-16.33 -20.37,-18.38" fill="#F7F9FB" stroke="#252A31" stroke-width="1.5" stroke-linejoin="round"/>
<polygon points="-27.78,11.20 -23.91,13.43 -23.91,-16.33 -27.78,-18.57" fill="#A9B4C0" stroke="#252A31" stroke-width="1.5" stroke-linejoin="round"/>
<polygon points="-44.44,-8.95 -40.57,-6.72 -44.11,-4.67 -47.98,-6.90" fill="#EEF1F5" stroke="#252A31" stroke-width="1.5" stroke-linejoin="round"/>
<polygon points="-40.57,23.05 -44.11,25.10 -44.11,-4.67 -40.57,-6.72" fill="#F7F9FB" stroke="#252A31" stroke-width="1.5" stroke-linejoin="round"/>
<polygon points="-47.98,22.87 -44.11,25.10 -44.11,-4.67 -47.98,-6.90" fill="#A9B4C0" stroke="#252A31" stroke-width="1.5" stroke-linejoin="round"/>
<polygon points="0.00,-6.33 8.06,-1.67 -69.28,42.98 -77.34,38.33" fill="#C79A68" stroke="#252A31" stroke-width="2.4" stroke-linejoin="round"/>
<polygon points="8.06,4.65 -69.28,49.30 -69.28,42.98 8.06,-1.67" fill="#C79A68" stroke="#252A31" stroke-width="2.4" stroke-linejoin="round"/>
<polygon points="-77.34,44.65 -69.28,49.30 -69.28,42.98 -77.34,38.33" fill="#A87C4E" stroke="#252A31" stroke-width="2.4" stroke-linejoin="round"/>
</svg>