<?xml version="1.0" encoding="utf-8"?>
<!-- Generator: Adobe Illustrator 18.0.0, SVG Export Plug-In . SVG Version: 6.00 Build 0)  -->
<!DOCTYPE svg PUBLIC "-//W3C//DTD SVG 1.1//EN" "http://www.w3.org/Graphics/SVG/1.1/DTD/svg11.dtd" [
	<!ENTITY ns_flows "http://ns.adobe.com/Flows/1.0/">
	<!ENTITY ns_extend "http://ns.adobe.com/Extensibility/1.0/">
	<!ENTITY ns_ai "http://ns.adobe.com/AdobeIllustrator/10.0/">
	<!ENTITY ns_graphs "http://ns.adobe.com/Graphs/1.0/">
	<!ENTITY ns_vars "http://ns.adobe.com/Variables/1.0/">
	<!ENTITY ns_imrep "http://ns.adobe.com/ImageReplacement/1.0/">
	<!ENTITY ns_sfw "http://ns.adobe.com/SaveForWeb/1.0/">
	<!ENTITY ns_custom "http://ns.adobe.com/GenericCustomNamespace/1.0/">
	<!ENTITY ns_adobe_xpath "http://ns.adobe.com/XPath/1.0/">
]>
<svg version="1.1" id="Layer_1" xmlns:x="&ns_extend;" xmlns:i="&ns_ai;" xmlns:graph="&ns_graphs;"
	 xmlns="http://www.w3.org/2000/svg" xmlns:xlink="http://www.w3.org/1999/xlink" xmlns:a="http://ns.adobe.com/AdobeSVGViewerExtensions/3.0/"
	 x="0px" y="0px" width="100%" height="100%" viewBox="0 0 328.1 43.1" enable-background="new 0 0 328.1 43.1" xml:space="preserve">
<switch>
	<g i:extraneous="self">
		<g>
			<g>
				<g>
					<path fill="#CE1126" d="M60.8,32.3c-1.6,2-4.5,3.3-7.3,3.3c-4,0-7.1-2.5-8.3-6l24,0c0.1-1,0.2-2.2,0.2-3.2
						c-0.1-9.2-6.9-16.6-16.1-16.5c-9.2,0.1-16.6,7.6-16.5,16.8c0.1,9.2,7.6,16.6,16.8,16.5c5.6,0,10.1-2,12.9-5.2L60.8,32.3z
						 M53.3,17.4c4,0,7,2.6,8,6.2l-16.3,0C46.2,20,49.3,17.4,53.3,17.4z"/>
				</g>
				<g>
					<path fill="#CE1126" d="M253.2,32.3c-1.6,2-4.5,3.3-7.3,3.3c-4,0-7.1-2.5-8.3-6l24,0c0.1-1,0.2-2.2,0.2-3.2
						c-0.1-9.2-6.9-16.6-16.1-16.5c-9.2,0.1-16.6,7.6-16.5,16.8c0.1,9.2,7.6,16.6,16.8,16.5c5.6,0,10.1-2,12.9-5.2L253.2,32.3z
						 M245.8,17.4c4,0,7,2.6,8,6.2l-16.3,0C238.6,20,241.8,17.4,245.8,17.4z"/>
				</g>
				<g>
					<path fill="#CE1126" d="M281.9,35.6c-5,0-8.8-4.1-8.8-9.1c0-5,3.7-9.1,8.8-9.1c3.1,0,5.8,1.5,7.4,3.9l5.4-5.4
						c-3.1-3.7-7.7-6-12.8-6c-9.2,0-16.6,7.4-16.6,16.6c0,9.2,7.4,16.6,16.6,16.6c5.2,0,9.8-2.3,12.8-6l-5.4-5.4
						C287.7,34.1,285,35.6,281.9,35.6z"/>
				</g>
				<path fill="#CE1126" d="M18.2,42.8c-3.8,0-7.2-1.5-9.7-4.1v3.1H0V0h8.9v13.4c2.4-2.3,5.7-3.7,9.3-3.7c8.3,0,15.1,7.2,15.1,16.6
					C33.3,35.7,26.6,42.8,18.2,42.8z M17.1,17.2c-4.5,0-8.1,4.1-8.1,9.1c0,4.9,3.6,8.9,8.1,8.9c4.5,0,8.1-3.9,8.1-8.9
					C25.2,21.2,21.6,17.2,17.1,17.2z"/>
				<path fill="#CE1126" d="M158.4,26.3c0-9.4,6.8-16.6,15.1-16.6c3.6,0,6.9,1.4,9.3,3.7V0h8.9v41.9h-8.5v-3.1
					c-2.5,2.6-5.9,4.1-9.7,4.1C165.2,42.8,158.4,35.7,158.4,26.3z M166.6,26.4c0,5.1,3.6,8.9,8.1,8.9c4.5,0,8.1-4,8.1-8.9
					c0-5.1-3.6-9.1-8.1-9.1C170.2,17.2,166.6,21.2,166.6,26.4z"/>
				<path fill="#CE1126" d="M120.5,41.8h-8.9v-3c-2.5,2.6-5.9,4.1-9.8,4.1c-8.3,0-15.1-7.2-15.1-16.6c0-9.5,6.9-16.6,15.1-16.6
					c3.9,0,7.3,1.5,9.8,4.1v-3.4h8.9V41.8z M103.2,17.3c-4.6,0-8.4,4-8.4,9.1c0,5.1,3.8,9,8.4,9c4.7,0,8.4-4,8.4-9
					C111.6,21.4,107.9,17.3,103.2,17.3z"/>
				<path fill="#CE1126" d="M307.4,42.7c-5.5,0-9.3-2.2-9.3-9.6V18v-7.7V2.1h9v8.1h7.5V18h-7.5v13.6c0,2.1,0.9,3.1,2.9,3.1
					c1.7,0,3.2-0.4,4.5-1.1v7.3C312.7,42,310.5,42.7,307.4,42.7z"/>
				<path fill="#CE1126" d="M82.4,0.1v41.8h-8.9V0.1H82.4z"/>
				<path fill="#CE1126" d="M126.1,41.9V10.5h8.9v31.4H126.1z"/>
				<path fill="#CE1126" d="M197.4,41.9V10.5h8.9v31.4H197.4z"/>
				<path fill="#CE1126" d="M148.9,10.5v4.1c1.6-3.2,4.2-4.8,8-4.8v8.7c-0.1,0-0.2,0-0.2,0c-5.9,0-7.2,2-7.2,7.9v15.6h-8.9V10.5
					H148.9z"/>
				<path fill="#CE1126" d="M220.2,10.5v4.1c1.5-3.2,4.2-4.8,8-4.8v8.7c-0.1,0-0.2,0-0.2,0c-5.9,0-7.2,2-7.2,7.9v15.6h-8.9V10.5
					H220.2z"/>
				<path fill="#CE1126" d="M328.1,38c0,2.7-2.2,4.8-4.9,4.8c-2.7,0-4.8-2.2-4.8-4.8c0-2.7,2.2-4.9,4.8-4.9
					C325.9,33.1,328.1,35.3,328.1,38z"/>
			</g>
		</g>
	</g>
</switch>
</svg>
