<?xml version="1.0" encoding="UTF-8" standalone="no"?>
<!-- Created with Inkscape (http://www.inkscape.org/) -->

<svg
   xmlns:dc="http://purl.org/dc/elements/1.1/"
   xmlns:cc="http://creativecommons.org/ns#"
   xmlns:rdf="http://www.w3.org/1999/02/22-rdf-syntax-ns#"
   xmlns:svg="http://www.w3.org/2000/svg"
   xmlns="http://www.w3.org/2000/svg"
   xmlns:sodipodi="http://sodipodi.sourceforge.net/DTD/sodipodi-0.dtd"
   xmlns:inkscape="http://www.inkscape.org/namespaces/inkscape"
   width="397.12598"
   height="105.228"
   id="svg7270"
   version="1.1"
   inkscape:version="0.91 r13725"
   sodipodi:docname="Intact_Financial_logo.svg">
  <defs
     id="defs7272" />
  <sodipodi:namedview
     id="base"
     pagecolor="#ffffff"
     bordercolor="#666666"
     borderopacity="1.0"
     inkscape:pageopacity="0.0"
     inkscape:pageshadow="2"
     inkscape:zoom="1.4"
     inkscape:cx="195.13954"
     inkscape:cy="28.850299"
     inkscape:document-units="px"
     inkscape:current-layer="layer1"
     showgrid="false"
     fit-margin-top="0"
     fit-margin-left="0"
     fit-margin-right="0"
     fit-margin-bottom="0"
     showborder="false"
     inkscape:showpageshadow="false"
     inkscape:window-width="1366"
     inkscape:window-height="705"
     inkscape:window-x="-8"
     inkscape:window-y="-8"
     inkscape:window-maximized="1" />
  <metadata
     id="metadata7275">
    <rdf:RDF>
      <cc:Work
         rdf:about="">
        <dc:format>image/svg+xml</dc:format>
        <dc:type
           rdf:resource="http://purl.org/dc/dcmitype/StillImage" />
        <dc:title></dc:title>
      </cc:Work>
    </rdf:RDF>
  </metadata>
  <g
     inkscape:label="Layer 1"
     inkscape:groupmode="layer"
     id="layer1"
     transform="translate(-69.917357,-754.0339)">
    <path
       style="fill:#051922;fill-opacity:1;stroke:#000000;stroke-width:0;stroke-miterlimit:4;stroke-dasharray:none;stroke-opacity:0.12280704"
       id="path4796"
       d="m 69.917362,841.51447 c 19.708451,0 39.416618,0 59.124778,0 16.40533,0 32.81081,0 49.21629,0 3.5625,0 7.12515,0 10.6875,0 0,0 0,4.74742 0,4.74742 l 0,0 c -3.56235,0 -7.125,0 -10.6875,0 -16.40548,0 -32.81096,0 -49.21629,0 -19.70816,0 -39.416327,0 -59.124778,0 0,0 0,-4.74742 0,-4.74742 z"
       inkscape:connector-curvature="0" />
    <path
       style="fill:#e3173e;fill-opacity:1;stroke:#000000;stroke-width:0;stroke-miterlimit:4;stroke-dasharray:none;stroke-opacity:0.12280704"
       id="path4796-9"
       d="m 69.917362,766.54115 c 19.708451,0 39.416618,0 59.124778,0 16.40533,0 32.81081,0 49.21629,0 3.5625,0 7.12515,0 10.6875,0 0,0 0,4.74742 0,4.74742 l 0,0 c -3.56235,0 -7.125,0 -10.6875,0 -16.40548,0 -32.81096,0 -49.21629,0 -19.70816,0 -39.416327,0 -59.124778,0 0,0 0,-4.74742 0,-4.74742 z"
       inkscape:connector-curvature="0" />
    <path
       style="fill:#00aebd;fill-opacity:1;stroke:#000000;stroke-width:0;stroke-miterlimit:4;stroke-dasharray:none;stroke-opacity:0.12280704"
       id="path4796-9-6"
       d="m 69.917362,804.01447 c 19.708307,0 39.416618,0 59.124778,0 16.40533,0 32.81081,0 49.21629,0 3.5625,0 7.12515,0 10.6875,0 0,0 0,4.74742 0,4.74742 l 0,0 c -3.56235,0 -7.125,0 -10.6875,0 -16.40548,0 -32.81096,0 -49.21629,0 -19.70816,0 -39.416471,0 -59.124778,0 0,0 0,-4.74742 0,-4.74742 z"
       inkscape:connector-curvature="0" />
    <path
       inkscape:connector-curvature="0"
       d="m 261.21651,859.2619 -35.87673,0 0,-105.228 35.87673,0 0,11.0373 -24.83949,0 0,83.15165 24.83949,0 0,11.03905"
       style="fill:#e3173e;fill-opacity:1;fill-rule:nonzero;stroke:none"
       id="path7080" />
    <path
       inkscape:connector-curvature="0"
       d="m 314.64853,805.78235 c 0,-6.41903 -1.736,-8.43679 -3.02225,-9.8088 -2.198,-2.29601 -5.77325,-3.76427 -9.44475,-3.76427 -1.55749,0 -7.79624,0.18375 -12.38124,6.60453 l 0,-5.50377 -14.67549,0 0,1.92676 5.96575,0 0,33.93616 -9.91025,0 0,-35.86292 -14.86274,0 0,1.92676 6.244,0 0,33.93616 -6.328,0 0,1.92501 39.71273,0 0,-1.92501 -6.146,0 0,-16.04583 c 0.091,-6.97203 0.1785,-12.47406 4.49225,-16.05458 1.743,-1.3755 3.85,-2.19801 5.873,-2.19801 1.37374,0 4.49749,0.45326 5.40749,4.22102 0.1855,0.91001 0.28,1.64326 0.37275,5.40753 l 0,24.66987 -5.78024,0 0,1.92501 20.53973,0 0,-1.92501 -6.05674,0 0,-23.39061"
       style="fill:#231f20;fill-opacity:1;fill-rule:nonzero;stroke:none"
       id="path7088" />
    <path
       inkscape:connector-curvature="0"
       d="m 266.15781,785.35135 c 3.45274,0 6.25799,-2.80001 6.25799,-6.25803 0,-3.45102 -2.80525,-6.25278 -6.25799,-6.25278 -3.45625,0 -6.25625,2.80176 -6.25625,6.25278 0,3.45802 2.8,6.25803 6.25625,6.25803"
       style="fill:#231f20;fill-opacity:1;fill-rule:nonzero;stroke:none"
       id="path7104" />
    <path
       inkscape:connector-curvature="0"
       d="m 364.64047,815.14279 c -0.189,4.67602 -0.3675,7.88904 -3.304,10.73455 -0.82775,0.7315 -2.569,2.11051 -5.13625,2.11051 -2.933,0 -5.78024,-1.93376 -5.78024,-6.42253 0,-7.52503 7.06649,-9.63554 14.22049,-9.7213 l 0,3.29877 z m 10.63299,14.39732 c -2.10525,0 -2.10525,-2.19626 -2.10525,-5.31478 l 0,-19.17309 c 0,-3.48601 0,-6.51353 -2.56375,-9.17004 -2.29599,-2.20151 -6.60799,-3.67152 -11.01449,-3.67152 -9.25399,0 -15.21799,5.23253 -15.21799,9.72655 0,2.28901 1.554,4.30502 4.039,4.30502 2.4675,0 4.21399,-1.92501 4.21399,-3.93752 0,-2.11401 -1.92499,-3.30752 -1.92499,-4.40652 0,-1.37551 3.38974,-3.85002 7.52149,-3.85002 6.0515,0 6.23,4.30852 6.419,6.97028 l 0,9.1683 c -3.39675,0 -8.44025,0.3675 -12.47575,1.5645 -6.14774,1.92151 -10.36524,5.86603 -10.36524,11.46081 0,0.44975 0.0385,0.87675 0.0927,1.295 -0.33425,1.66951 -1.25125,4.75828 -5.41275,4.75828 -4.58149,0 -4.49399,-3.85002 -4.49399,-6.69728 l 0,-27.32988 9.81399,0 0,-1.92501 -9.81399,0 0,-15.22683 -1.37025,0 c -0.46025,1.92676 -1.1025,4.67953 -4.683,8.9898 -2.29075,2.84201 -5.0435,5.41102 -8.44024,6.87753 l 0,1.28451 5.96924,0 0,23.11061 c 0,4.68302 0,6.70253 0.72975,8.44029 1.3755,3.67326 5.04525,5.41627 9.53925,5.41627 5.42324,0 7.91174,-2.40976 9.12449,-4.72852 1.67125,3.03626 5.18525,4.72852 9.30999,4.72852 6.237,0 10.27775,-3.57702 12.28675,-7.61603 0.189,1.834 0.4655,4.13001 2.57425,5.87302 1.37025,1.09726 3.29524,1.74301 5.31999,1.74301 3.85525,0 5.9605,-2.11051 6.8775,-3.03101 l -1.106,-1.28451 c -0.63525,0.553 -1.6415,1.65026 -2.84375,1.65026"
       style="fill:#231f20;fill-opacity:1;fill-rule:nonzero;stroke:none"
       id="path7092" />
    <path
       inkscape:connector-curvature="0"
       d="m 397.74758,830.17921 c -4.76525,0 -7.24675,-2.65476 -8.253,-5.68228 -0.92225,-2.57076 -0.92225,-6.05502 -0.92225,-9.17004 0,-4.13177 0.0997,-12.56856 1.56625,-16.14208 1.83225,-4.49752 5.6805,-5.13802 8.253,-5.13802 4.95249,0 7.24674,2.29776 7.24674,3.11501 0,0.36751 -0.18025,0.55476 -0.46025,0.91701 -0.7315,0.735 -1.834,2.20151 -1.834,4.31202 0,2.48151 1.65375,4.86152 4.31375,4.86152 2.653,0 4.67075,-2.20151 4.67075,-5.13802 0,-4.58502 -5.2255,-9.90505 -13.75324,-9.90505 -10.822,0 -19.99724,8.52954 -19.99724,20.36135 0,10.82205 8.16374,19.63334 18.89474,19.63334 9.90674,0 14.76299,-6.88278 16.05449,-13.39106 l -2.29425,0 c -1.28275,5.50202 -5.775,11.3663 -13.48549,11.3663"
       style="fill:#231f20;fill-opacity:1;fill-rule:nonzero;stroke:none"
       id="path7096" />
    <path
       inkscape:connector-curvature="0"
       d="m 437.0935,824.03983 c -0.27475,1.46301 -0.91525,5.22553 -5.50374,5.22553 -4.58675,0 -4.4905,-3.85002 -4.4905,-6.69728 l 0,-27.32988 9.81049,0 0,-1.92676 -9.81049,0 0,-15.22508 -1.379,0 c -0.455,1.92501 -1.10075,4.67953 -4.676,8.98805 -2.29249,2.84376 -5.04699,5.41102 -8.44199,6.87928 l 0,1.28451 5.964,0 0,23.11061 c 0,4.68302 0,6.70253 0.73499,8.43854 1.37375,3.67501 5.04525,5.41802 9.53925,5.41802 8.52774,0 9.81399,-5.96053 10.27074,-8.16554 l -2.01775,0"
       style="fill:#231f20;fill-opacity:1;fill-rule:nonzero;stroke:none"
       id="path7100" />
    <path
       inkscape:connector-curvature="0"
       d="m 467.04334,859.2619 -35.87148,0 0,-11.03905 24.83598,0 0,-83.15165 -24.83598,0 0,-11.0373 35.87148,0 0,105.228"
       style="fill:#e3173e;fill-opacity:1;fill-rule:nonzero;stroke:none"
       id="path7084" />
  </g>
</svg>
