<svg width="476" height="161" viewBox="0 0 476 161" fill="none" xmlns="http://www.w3.org/2000/svg">
<path d="M65.5999 60.6V116H94.4999C95.5999 116 96.6999 115.4 97.0999 114C98.4999 109.8 100.6 91.9 98.4999 68.4C98.3999 66.9 97.8999 61 93.2999 60.6C93.1999 60.6 91.0999 60.6 89.1999 60.5C89.1999 60.5 83.3999 60.7 86.8999 57.2C89.8999 54.1 89.9999 49.3 86.8999 46.3C85.4999 44.8 83.4999 44 81.3999 44C79.3999 44 77.2999 44.8 75.7999 46.3C72.6999 49.3 72.7999 54.1 75.7999 57.2C79.1999 60.8 73.4999 60.5 73.4999 60.5L65.5999 60.6Z" fill="#0094D2"/>
<path d="M33.8999 60.6V116H4.8999C3.7999 116 2.6999 115.4 2.2999 114C0.899896 109.8 -1.2001 91.9 0.899896 68.4C0.999896 66.9 1.4999 61 5.9999 60.6C6.0999 60.6 8.1999 60.6 10.0999 60.5C10.0999 60.5 15.8999 60.7 12.3999 57.2C9.3999 54.1 9.2999 49.3 12.3999 46.3C13.9999 44.8 15.9999 44 18.0999 44C20.0999 44 22.1999 44.8 23.6999 46.3C26.7999 49.3 26.6999 54.1 23.6999 57.2C20.2999 60.8 25.9999 60.5 25.9999 60.5L33.8999 60.6Z" fill="#004B8D"/>
<path d="M65.5998 72.9V74.5C65.5998 74.4 65.5998 74.3 65.5998 74.1V60.6L57.6998 60.5C57.6998 60.5 51.9998 60.7 55.3998 57.2C58.3998 54.1 58.4998 49.3 55.3998 46.3C53.7998 44.8 51.7998 44 49.7998 44C47.7998 44 45.6998 44.8 44.1998 46.3C41.0998 49.3 41.1998 54.1 44.1998 57.2C47.6998 60.8 41.9998 60.5 41.8998 60.5L33.9998 60.6V72.9C33.9998 84.4 22.2998 65.8 22.2998 81.5C22.2998 97.2 33.9998 78.5 33.9998 90.1V116H65.6998V89C65.6998 88.9 65.6998 88.7 65.6998 88.6V90.1C65.6998 78.5 77.3998 97.2 77.3998 81.5C77.3998 65.8 65.5998 84.5 65.5998 72.9Z" fill="#AFBC21"/>
<path d="M192.6 102.1C192.7 109.1 197.6 112 203.2 112C207.2 112 209.8 111.3 212 110.5L213.1 114.7C210.9 115.6 207.3 116.6 202.4 116.6C192.5 116.6 186.6 110.4 186.6 101.3C186.6 92.3 192.2 85 201.7 85C212.1 85 214.9 93.5 214.9 99.4C214.9 100.6 214.8 101.5 214.7 102.2L192.6 102.1ZM208.8 97.8C208.9 94.5 207.4 89.3 201.2 89.3C195.5 89.3 193.1 94.2 192.7 97.8H208.8Z" fill="#004B8D"/>
<path d="M256.8 102.1C256.9 109.1 261.8 112 267.4 112C271.4 112 274 111.3 276.2 110.5L277.3 114.7C275.1 115.6 271.5 116.6 266.6 116.6C256.7 116.6 250.8 110.4 250.8 101.3C250.8 92.3 256.4 85 265.9 85C276.3 85 279.1 93.5 279.1 99.4C279.1 100.6 279 101.5 278.9 102.2L256.8 102.1ZM273 97.8C273.1 94.5 271.6 89.3 265.4 89.3C259.7 89.3 257.3 94.2 256.9 97.8H273Z" fill="#004B8D"/>
<path d="M304.8 110C306.6 111 309.7 112.2 312.6 112.2C316.7 112.2 318.5 110.4 318.5 108C318.5 105.5 316.9 104.2 312.8 102.7C306.9 100.7 304.2 97.7001 304.3 94.1001C304.3 89.1001 308.6 85.1001 315.6 85.1001C318.9 85.1001 321.8 85.9001 323.5 86.9001L322 91.2001C320.7 90.5001 318.4 89.4001 315.4 89.4001C312.1 89.4001 310.3 91.1001 310.3 93.3001C310.3 95.7001 312.1 96.7001 316.2 98.2001C321.8 100.1 324.6 102.8 324.6 107.3C324.6 112.7 320.2 116.5 312.5 116.5C308.9 116.5 305.6 115.6 303.4 114.4L304.8 110Z" fill="#004B8D"/>
<path d="M344.5 116.6C335.8 116.6 329.1 110.6 329.1 101C329.1 90.8999 336.1 84.8999 345.1 84.8999C354.3 84.8999 360.5 91.1999 360.5 100.4C360.4 111.7 352.2 116.6 344.5 116.6ZM344.6 112.1C349.9 112.1 353.8 107.3 353.8 100.7C353.8 95.6999 351.2 89.3999 344.7 89.3999C338.2 89.3999 335.4 95.1999 335.4 100.8C335.4 107.3 339.2 112.1 344.6 112.1Z" fill="#004B8D"/>
<path d="M424.5 108.7C424.5 111.3 424.6 113.9 425 116H419.3L418.8 112.3H418.6C416.8 114.7 413.4 116.7 409 116.7C402.6 116.7 399.2 112.3 399.2 107.9C399.2 100.5 406.1 96.5 418.3 96.6V96C418.3 93.7 417.5 89.4 411.2 89.4C408.2 89.4 405.1 90.3 402.9 91.7L401.5 87.7C404.1 86.1 408 85 412.2 85C422 85 424.5 91.3 424.5 97.5V108.7ZM418.4 100.6C412.3 100.5 405.5 101.6 405.5 107.1C405.5 110.6 407.9 112.2 410.7 112.2C414.6 112.2 417.2 109.8 418.1 107.3C418.3 106.7 418.4 106.1 418.4 105.6V100.6Z" fill="#004B8D"/>
<path d="M169.7 85C167.6 85 165.6 85.6 163.9 86.5C162.2 87.4 160.7 88.8 159.8 90.3H159.7V71.5H156C154.6 71.5 153.4 72.7 153.4 74.1V115.9H159.7V97.7C159.7 96.7 159.8 95.9 160.1 95.2C161.2 92.4 163.9 90 167.5 90C172.7 90 174.5 93.9 174.5 98.7V116H180.8V98C180.8 87.7 174.3 85 169.7 85Z" fill="#004B8D"/>
<path d="M245.3 74.5999C242.5 72.1999 238.1 70.8999 232.1 70.8999C228.5 70.8999 225.4 71.0999 222.9 71.3999C221.5 71.5999 220.3 72.5999 220.3 73.9999V115.9H226.6V98.0999C228 98.3999 229.6 98.4999 231.5 98.4999C237.4 98.4999 242.6 96.8999 245.9 93.5999C248.3 91.2999 249.6 88.0999 249.6 83.9999C249.5 79.9999 247.9 76.6999 245.3 74.5999ZM231.5 93.6999C229.5 93.6999 227.9 93.5999 226.5 93.1999V75.9999C227.6 75.7999 229.5 75.5999 232.2 75.5999C238.8 75.5999 243.2 78.4999 243.2 84.2999C243.2 90.2999 238.8 93.6999 231.5 93.6999Z" fill="#004B8D"/>
<path d="M299 85C295.2 85 291.7 87.5 290.2 91.6H290V85.7H287C285.6 85.7 284.4 86.9 284.4 88.3V116H290.7V99.9C290.7 99 290.8 98.1 290.9 97.4C291.7 93.4 294.5 90.7 298.5 90.7C299.3 90.7 299.9 90.8 300.6 90.9V85.2C300.1 85 299.7 85 299 85Z" fill="#004B8D"/>
<path d="M382.4 85C377.1 85 373.5 87.8 372 90.6H371.8V85.7H368.8C367.4 85.7 366.2 86.9 366.2 88.3V116H372.5V97.8C372.5 96.9 372.7 95.9 372.9 95.3C373.9 92.4 376.7 89.9 380.3 89.9C385.5 89.9 387.3 93.8 387.3 98.6V116H393.6V98C393.6 87.7 387.1 85 382.4 85Z" fill="#004B8D"/>
<path d="M434.8 71.5C433.4 71.5 432.2 72.7 432.2 74.1V115.9H438.5V71.5H434.8Z" fill="#004B8D"/>
<path d="M148 90.2001V85.7001H139.9V78.3L136.3 79.1C134.9 79.4 133.7 80.3001 133.7 81.7001V85.7001H128.9V90.2001H133.7V106.2C133.7 109.9 134.4 112.6 136 114.2C137.4 115.7 139.7 116.6 142.4 116.6C144.7 116.6 146.6 116.3 147.7 115.8L147.5 111.2C146.6 111.4 145.7 111.6 144.2 111.6C141 111.6 139.9 109.5 139.9 105.8V90.2001H148Z" fill="#004B8D"/>
</svg>
