<svg xmlns="http://www.w3.org/2000/svg" viewBox="-58.14 -39.60 116.28 116.28">
<ellipse cx="0.00" cy="40.88" rx="49.06" ry="16.19" fill="#0B1220" opacity="0.1"/>
<polygon points="9.00,25.07 14.90,28.48 9.00,31.88 3.10,28.48" fill="#C79A68" stroke="#252A31" stroke-width="1.5" stroke-linejoin="round"/>
<polygon points="14.90,60.27 9.00,63.68 9.00,31.88 14.90,28.48" fill="#C79A68" stroke="#252A31" stroke-width="1.5" stroke-linejoin="round"/>
<polygon points="3.10,60.27 9.00,63.68 9.00,31.88 3.10,28.48" fill="#A87C4E" stroke="#252A31" stroke-width="1.5" stroke-linejoin="round"/>
<polygon points="-33.59,0.48 -27.68,3.89 -33.59,7.30 -39.49,3.89" fill="#C79A68" stroke="#252A31" stroke-width="1.5" stroke-linejoin="round"/>
<polygon points="-27.68,35.69 -33.59,39.09 -33.59,7.30 -27.68,3.89" fill="#C79A68" stroke="#252A31" stroke-width="1.5" stroke-linejoin="round"/>
<polygon points="-39.49,35.69 -33.59,39.09 -33.59,7.30 -39.49,3.89" fill="#A87C4E" stroke="#252A31" stroke-width="1.5" stroke-linejoin="round"/>
<polygon points="24.59,-8.52 30.49,-5.11 24.59,-1.70 18.69,-5.11" fill="#C79A68" stroke="#252A31" stroke-width="1.5" stroke-linejoin="round"/>
<polygon points="30.49,26.69 24.59,30.09 24.59,-1.70 30.49,-5.11" fill="#C79A68" stroke="#252A31" stroke-width="1.5" stroke-linejoin="round"/>
<polygon points="18.69,26.69 24.59,30.09 24.59,-1.70 18.69,-5.11" fill="#A87C4E" stroke="#252A31" stroke-width="1.5" stroke-linejoin="round"/>
<polygon points="35.40,29.53 27.27,33.33 27.27,26.51 35.40,22.71" fill="#A87C4E" stroke="#A87C4E" stroke-width="1.5" stroke-linejoin="round"/>
<polygon points="27.27,33.33 17.94,36.07 17.94,29.26 27.27,26.51" fill="#A87C4E" stroke="#A87C4E" stroke-width="1.5" stroke-linejoin="round"/>
<polygon points="17.94,36.07 7.83,37.64 7.83,30.82 17.94,29.26" fill="#A87C4E" stroke="#A87C4E" stroke-width="1.5" stroke-linejoin="round"/>
<polygon points="7.83,37.64 -2.62,37.95 -2.62,31.14 7.83,30.82" fill="#A87C4E" stroke="#A87C4E" stroke-width="1.5" stroke-linejoin="round"/>
<polygon points="-2.62,37.95 -12.96,37.01 -12.96,30.19 -2.62,31.14" fill="#A87C4E" stroke="#A87C4E" stroke-width="1.5" stroke-linejoin="round"/>
<polygon points="-12.96,37.01 -22.73,34.84 -22.73,28.03 -12.96,30.19" fill="#A87C4E" stroke="#A87C4E" stroke-width="1.5" stroke-linejoin="round"/>
<polygon points="-22.73,34.84 -31.51,31.55 -31.51,24.74 -22.73,28.03" fill="#A87C4E" stroke="#A87C4E" stroke-width="1.5" stroke-linejoin="round"/>
<polygon points="-31.51,31.55 -38.91,27.28 -38.91,20.46 -31.51,24.74" fill="#A87C4E" stroke="#A87C4E" stroke-width="1.5" stroke-linejoin="round"/>
<polygon points="-38.91,27.28 -44.61,22.21 -44.61,15.39 -38.91,20.46" fill="#A87C4E" stroke="#A87C4E" stroke-width="1.5" stroke-linejoin="round"/>
<polygon points="-44.61,22.21 -48.36,16.57 -48.36,9.75 -44.61,15.39" fill="#A87C4E" stroke="#A87C4E" stroke-width="1.5" stroke-linejoin="round"/>
<polygon points="-48.36,16.57 -50.00,10.60 -50.00,3.78 -48.36,9.75" fill="#A87C4E" stroke="#A87C4E" stroke-width="1.5" stroke-linejoin="round"/>
<polygon points="-50.00,10.60 -49.45,4.56 -49.45,-2.25 -50.00,3.78" fill="#A87C4E" stroke="#A87C4E" stroke-width="1.5" stroke-linejoin="round"/>
<polygon points="-49.45,4.56 -46.74,-1.27 -46.74,-8.09 -49.45,-2.25" fill="#A87C4E" stroke="#A87C4E" stroke-width="1.5" stroke-linejoin="round"/>
<polygon points="-46.74,-1.27 -41.99,-6.66 -41.99,-13.47 -46.74,-8.09" fill="#A87C4E" stroke="#A87C4E" stroke-width="1.5" stroke-linejoin="round"/>
<polygon points="-41.99,-6.66 -35.40,-11.36 -35.40,-18.17 -41.99,-13.47" fill="#A87C4E" stroke="#A87C4E" stroke-width="1.5" stroke-linejoin="round"/>
<polygon points="-35.40,-11.36 -27.27,-15.16 -27.27,-21.97 -35.40,-18.17" fill="#A87C4E" stroke="#A87C4E" stroke-width="1.5" stroke-linejoin="round"/>
<polygon points="-27.27,-15.16 -17.94,-17.90 -17.94,-24.72 -27.27,-21.97" fill="#A87C4E" stroke="#A87C4E" stroke-width="1.5" stroke-linejoin="round"/>
<polygon points="-17.94,-17.90 -7.83,-19.47 -7.83,-26.28 -17.94,-24.72" fill="#A87C4E" stroke="#A87C4E" stroke-width="1.5" stroke-linejoin="round"/>
<polygon points="-7.83,-19.47 2.62,-19.78 2.62,-26.60 -7.83,-26.28" fill="#A87C4E" stroke="#A87C4E" stroke-width="1.5" stroke-linejoin="round"/>
<polygon points="2.62,-19.78 12.96,-18.84 12.96,-25.65 2.62,-26.60" fill="#A87C4E" stroke="#A87C4E" stroke-width="1.5" stroke-linejoin="round"/>
<polygon points="12.96,-18.84 22.73,-16.67 22.73,-23.49 12.96,-25.65" fill="#A87C4E" stroke="#A87C4E" stroke-width="1.5" stroke-linejoin="round"/>
<polygon points="22.73,-16.67 31.51,-13.38 31.51,-20.19 22.73,-23.49" fill="#A87C4E" stroke="#A87C4E" stroke-width="1.5" stroke-linejoin="round"/>
<polygon points="31.51,-13.38 38.91,-9.11 38.91,-15.92 31.51,-20.19" fill="#A87C4E" stroke="#A87C4E" stroke-width="1.5" stroke-linejoin="round"/>
<polygon points="38.91,-9.11 44.61,-4.04 44.61,-10.85 38.91,-15.92" fill="#A87C4E" stroke="#A87C4E" stroke-width="1.5" stroke-linejoin="round"/>
<polygon points="44.61,-4.04 48.36,1.60 48.36,-5.21 44.61,-10.85" fill="#A87C4E" stroke="#A87C4E" stroke-width="1.5" stroke-linejoin="round"/>
<polygon points="48.36,1.60 50.00,7.57 50.00,0.76 48.36,-5.21" fill="#A87C4E" stroke="#A87C4E" stroke-width="1.5" stroke-linejoin="round"/>
<polygon points="50.00,7.57 49.45,13.61 49.45,6.79 50.00,0.76" fill="#A87C4E" stroke="#A87C4E" stroke-width="1.5" stroke-linejoin="round"/>
<polygon points="49.45,13.61 46.74,19.44 46.74,12.63 49.45,6.79" fill="#A87C4E" stroke="#A87C4E" stroke-width="1.5" stroke-linejoin="round"/>
<polygon points="46.74,19.44 41.99,24.83 41.99,18.02 46.74,12.63" fill="#A87C4E" stroke="#A87C4E" stroke-width="1.5" stroke-linejoin="round"/>
<polygon points="41.99,24.83 35.40,29.53 35.40,22.71 41.99,18.02" fill="#A87C4E" stroke="#A87C4E" stroke-width="1.5" stroke-linejoin="round"/>
<line x1="35.40" y1="29.53" x2="27.27" y2="33.33" stroke="#252A31" stroke-width="2.4" stroke-linecap="round"/>
<line x1="27.27" y1="33.33" x2="17.94" y2="36.07" stroke="#252A31" stroke-width="2.4" stroke-linecap="round"/>
<line x1="17.94" y1="36.07" x2="7.83" y2="37.64" stroke="#252A31" stroke-width="2.4" stroke-linecap="round"/>
<line x1="7.83" y1="37.64" x2="-2.62" y2="37.95" stroke="#252A31" stroke-width="2.4" stroke-linecap="round"/>
<line x1="-2.62" y1="37.95" x2="-12.96" y2="37.01" stroke="#252A31" stroke-width="2.4" stroke-linecap="round"/>
<line x1="-12.96" y1="37.01" x2="-22.73" y2="34.84" stroke="#252A31" stroke-width="2.4" stroke-linecap="round"/>
<line x1="-22.73" y1="34.84" x2="-31.51" y2="31.55" stroke="#252A31" stroke-width="2.4" stroke-linecap="round"/>
<line x1="-31.51" y1="31.55" x2="-38.91" y2="27.28" stroke="#252A31" stroke-width="2.4" stroke-linecap="round"/>
<line x1="-38.91" y1="27.28" x2="-44.61" y2="22.21" stroke="#252A31" stroke-width="2.4" stroke-linecap="round"/>
<line x1="-44.61" y1="22.21" x2="-48.36" y2="16.57" stroke="#252A31" stroke-width="2.4" stroke-linecap="round"/>
<line x1="-48.36" y1="16.57" x2="-50.00" y2="10.60" stroke="#252A31" stroke-width="2.4" stroke-linecap="round"/>
<line x1="-50.00" y1="10.60" x2="-50.00" y2="3.78" stroke="#252A31" stroke-width="2.4" stroke-linecap="round"/>
<line x1="50.00" y1="7.57" x2="49.45" y2="13.61" stroke="#252A31" stroke-width="2.4" stroke-linecap="round"/>
<line x1="50.00" y1="7.57" x2="50.00" y2="0.76" stroke="#252A31" stroke-width="2.4" stroke-linecap="round"/>
<line x1="49.45" y1="13.61" x2="46.74" y2="19.44" stroke="#252A31" stroke-width="2.4" stroke-linecap="round"/>
<line x1="46.74" y1="19.44" x2="41.99" y2="24.83" stroke="#252A31" stroke-width="2.4" stroke-linecap="round"/>
<line x1="41.99" y1="24.83" x2="35.40" y2="29.53" stroke="#252A31" stroke-width="2.4" stroke-linecap="round"/>
<polygon points="35.40,22.71 27.27,26.51 17.94,29.26 7.83,30.82 -2.62,31.14 -12.96,30.19 -22.73,28.03 -31.51,24.74 -38.91,20.46 -44.61,15.39 -48.36,9.75 -50.00,3.78 -49.45,-2.25 -46.74,-8.09 -41.99,-13.47 -35.40,-18.17 -27.27,-21.97 -17.94,-24.72 -7.83,-26.28 2.62,-26.60 12.96,-25.65 22.73,-23.49 31.51,-20.19 38.91,-15.92 44.61,-10.85 48.36,-5.21 50.00,0.76 49.45,6.79 46.74,12.63 41.99,18.02" fill="#C79A68" stroke="#252A31" stroke-width="2.4" stroke-linejoin="round"/>
</svg>