<svg xmlns="http://www.w3.org/2000/svg" viewBox="-64.64 -63.52 116.00 116.00">
<ellipse cx="-6.64" cy="22.24" rx="33.36" ry="11.01" fill="#0B1220" opacity="0.1"/>
<polygon points="31.88,18.40 -13.28,44.48 -13.28,-4.60 31.88,-30.67" fill="#CBD3DC" stroke="#252A31" stroke-width="2.4" stroke-linejoin="round"/>
<polygon points="-45.16,26.07 -13.28,44.48 -13.28,-4.60 -45.16,-23.01" fill="#A9B4C0" stroke="#252A31" stroke-width="2.4" stroke-linejoin="round"/>
<polygon points="29.75,17.18 -15.41,43.25 -15.41,38.65 29.75,12.58" fill="#6E7884" stroke="#252A31" stroke-width="1.5" stroke-linejoin="round"/>
<polygon points="29.42,-19.82 -10.43,3.18 -10.43,-2.95 29.42,-25.96" fill="#F7F9FB" stroke="#252A31" stroke-width="1.5" stroke-linejoin="round"/>
<polygon points="29.42,13.15 10.16,24.27 10.16,-5.64 29.42,-16.76" fill="#F7F9FB" stroke="#252A31" stroke-width="1.5" stroke-linejoin="round"/>
<polygon points="8.83,25.04 -10.43,36.16 -10.43,6.25 8.83,-4.87" fill="#F7F9FB" stroke="#252A31" stroke-width="1.5" stroke-linejoin="round"/>
<line x1="13.28" y1="12.27" x2="13.28" y2="1.53" stroke="#6E7884" stroke-width="2.4" stroke-linecap="round"/>
<line x1="7.97" y1="15.34" x2="7.97" y2="4.60" stroke="#6E7884" stroke-width="2.4" stroke-linecap="round"/>
<polygon points="0.00,-55.52 37.19,-34.05 -13.28,-4.91 -50.47,-26.38" fill="#EEF1F5" stroke="#252A31" stroke-width="2.4" stroke-linejoin="round"/>
<polygon points="37.19,-30.67 -13.28,-1.53 -13.28,-4.91 37.19,-34.05" fill="#C3CAD2" stroke="#252A31" stroke-width="2.4" stroke-linejoin="round"/>
<polygon points="-50.47,-23.01 -13.28,-1.53 -13.28,-4.91 -50.47,-26.38" fill="#AEB6BF" stroke="#252A31" stroke-width="2.4" stroke-linejoin="round"/>
<polygon points="-2.66,-45.25 18.60,-32.98 -10.63,-16.10 -31.88,-28.37" fill="#C3CAD2" stroke="#252A31" stroke-width="1.5" stroke-linejoin="round"/>
<polygon points="-2.66,-39.72 14.35,-29.91 -10.63,-15.49 -27.63,-25.31" fill="#7DAFD9" stroke="#252A31" stroke-width="1.5" stroke-linejoin="round"/>
</svg>